<?xml version="1.0" standalone="no"?><!DOCTYPE svg PUBLIC "-//W3C//DTD SVG 1.1//EN" "http://www.w3.org/Graphics/SVG/1.1/DTD/svg11.dtd"><svg class="icon" width="200px" height="189.63px" viewBox="0 0 1080 1024" version="1.1" xmlns="http://www.w3.org/2000/svg"><path d="M781.312 441.344L624.64 284.672c-9.216-9.216-22.528-15.36-36.864-15.36s-27.648 5.632-36.864 15.36l-251.392 251.392c-9.216 9.216-15.36 22.528-15.36 36.864s5.632 27.648 15.36 36.864l110.592 110.592c20.992 20.992 50.688 34.304 82.944 34.304s64.512-15.872 85.504-37.376l202.24-202.24c9.216-9.216 15.36-22.528 15.36-36.864 0.512-14.336-5.632-27.648-14.848-36.864z m-344.064 266.24l-118.272-116.736c-4.608-4.608-7.68-11.264-7.68-18.432s3.072-13.824 7.68-18.432l51.712-49.664 192.512 190.976c-38.912 38.4-88.064 46.592-125.952 12.288z m325.12-210.432l-179.2 178.688-195.584-190.464 179.712-181.248c4.608-4.608 11.264-7.68 18.432-7.68s13.824 3.072 18.432 7.68L762.368 460.8c4.608 4.608 7.68 11.264 7.68 18.432s-3.072 13.312-7.68 17.92z" /></svg>